<?xml version="1.0" encoding="UTF-8" standalone="no"?>
<!DOCTYPE svg PUBLIC "-//W3C//DTD SVG 1.1//EN" "http://www.w3.org/Graphics/SVG/1.1/DTD/svg11.dtd">
<svg width="100%" height="100%" viewBox="0 0 100 100" version="1.1" xmlns="http://www.w3.org/2000/svg" xmlns:xlink="http://www.w3.org/1999/xlink" xml:space="preserve" xmlns:serif="http://www.serif.com/" style="fill-rule:evenodd;clip-rule:evenodd;stroke-linejoin:round;stroke-miterlimit:2;">
    <g transform="matrix(1,0,0,1,-100,-50)">
        <g>
            <g transform="matrix(0.625,0,0,0.625,-4286.88,-398.75)">
                <circle cx="7099" cy="798" r="80" style="fill:rgb(243,39,53);"/>
            </g>
            <g transform="matrix(0.637561,0,0,0.647297,34.1372,52.0309)">
                <g transform="matrix(75,0,0,75,125.13,101.042)">
                    <path d="M0,-0L0.203,-0.373L0.019,-0.716L0.158,-0.716L0.274,-0.502L0.391,-0.716L0.528,-0.716L0.344,-0.373L0.546,-0L0.403,-0L0.273,-0.243L0.143,-0L0,-0Z" style="fill:white;fill-rule:nonzero;"/>
                </g>
                <g transform="matrix(75,0,0,75,166.146,101.042)">
                    <path d="M0.06,-0L0.06,-0.716L0.496,-0.716L0.496,-0.595L0.178,-0.595L0.178,-0.436L0.473,-0.436L0.473,-0.315L0.178,-0.315L0.178,-0.121L0.506,-0.121L0.506,-0L0.06,-0Z" style="fill:white;fill-rule:nonzero;"/>
                </g>
                <g transform="matrix(75,0,0,75,207.161,101.042)">
                    <path d="M0.416,-0.541L0.307,-0.526C0.302,-0.579 0.281,-0.605 0.243,-0.605C0.218,-0.605 0.198,-0.592 0.182,-0.565C0.166,-0.539 0.156,-0.485 0.151,-0.404C0.165,-0.424 0.181,-0.439 0.198,-0.449C0.216,-0.459 0.235,-0.464 0.256,-0.464C0.302,-0.464 0.342,-0.443 0.376,-0.4C0.41,-0.357 0.427,-0.301 0.427,-0.23C0.427,-0.154 0.409,-0.095 0.373,-0.052C0.337,-0.009 0.292,0.012 0.239,0.012C0.18,0.012 0.131,-0.016 0.093,-0.071C0.054,-0.127 0.035,-0.22 0.035,-0.349C0.035,-0.48 0.055,-0.574 0.095,-0.632C0.135,-0.689 0.186,-0.718 0.249,-0.718C0.293,-0.718 0.329,-0.704 0.359,-0.674C0.389,-0.645 0.408,-0.6 0.416,-0.541ZM0.161,-0.241C0.161,-0.196 0.17,-0.161 0.186,-0.137C0.203,-0.114 0.222,-0.102 0.244,-0.102C0.265,-0.102 0.282,-0.111 0.296,-0.131C0.31,-0.151 0.317,-0.184 0.317,-0.229C0.317,-0.276 0.309,-0.31 0.294,-0.331C0.279,-0.353 0.261,-0.363 0.239,-0.363C0.217,-0.363 0.199,-0.353 0.184,-0.333C0.169,-0.312 0.161,-0.282 0.161,-0.241Z" style="fill:white;fill-rule:nonzero;"/>
                </g>
            </g>
        </g>
    </g>
</svg>
