<?xml version="1.0" encoding="UTF-8" standalone="no"?>
<!DOCTYPE svg PUBLIC "-//W3C//DTD SVG 1.1//EN" "http://www.w3.org/Graphics/SVG/1.1/DTD/svg11.dtd">
<svg width="100%" height="100%" viewBox="0 0 100 100" version="1.1" xmlns="http://www.w3.org/2000/svg" xmlns:xlink="http://www.w3.org/1999/xlink" xml:space="preserve" xmlns:serif="http://www.serif.com/" style="fill-rule:evenodd;clip-rule:evenodd;stroke-linejoin:round;stroke-miterlimit:2;">
    <g transform="matrix(1,0,0,1,-100,-50)">
        <g>
            <g transform="matrix(0.625,0,0,0.625,-4286.88,-398.75)">
                <circle cx="7099" cy="798" r="80" style="fill:rgb(243,39,53);"/>
            </g>
            <g transform="matrix(0.637561,0,0,0.647297,31.4638,51.7346)">
                <g transform="matrix(75,0,0,75,125.13,101.042)">
                    <path d="M0.323,-0L0.21,-0L0.21,-0.517C0.168,-0.47 0.12,-0.435 0.065,-0.413L0.065,-0.538C0.096,-0.55 0.129,-0.573 0.162,-0.606C0.196,-0.638 0.219,-0.676 0.232,-0.718L0.323,-0.718L0.323,-0Z" style="fill:white;fill-rule:nonzero;"/>
                </g>
                <g transform="matrix(75,0,0,75,159.334,101.042)">
                    <path d="M0.225,-0.718C0.282,-0.718 0.328,-0.691 0.363,-0.637C0.398,-0.583 0.416,-0.488 0.416,-0.353C0.416,-0.218 0.398,-0.123 0.363,-0.069C0.328,-0.015 0.282,0.012 0.226,0.012C0.169,0.012 0.123,-0.015 0.087,-0.068C0.052,-0.122 0.035,-0.217 0.035,-0.354C0.035,-0.489 0.052,-0.583 0.087,-0.637C0.123,-0.691 0.168,-0.718 0.225,-0.718ZM0.225,-0.604C0.203,-0.604 0.185,-0.59 0.172,-0.561C0.159,-0.531 0.152,-0.462 0.152,-0.353C0.152,-0.244 0.159,-0.174 0.172,-0.145C0.185,-0.116 0.203,-0.102 0.225,-0.102C0.248,-0.102 0.266,-0.116 0.279,-0.145C0.292,-0.175 0.298,-0.244 0.298,-0.353C0.298,-0.462 0.292,-0.531 0.279,-0.561C0.266,-0.59 0.248,-0.604 0.225,-0.604Z" style="fill:white;fill-rule:nonzero;"/>
                </g>
                <g transform="matrix(75,0,0,75,193.538,101.042)">
                    <rect x="0.059" y="-0.137" width="0.112" height="0.137" style="fill:white;fill-rule:nonzero;"/>
                </g>
                <g transform="matrix(75,0,0,75,210.64,101.042)">
                    <path d="M0.225,-0.718C0.282,-0.718 0.328,-0.691 0.363,-0.637C0.398,-0.583 0.416,-0.488 0.416,-0.353C0.416,-0.218 0.398,-0.123 0.363,-0.069C0.328,-0.015 0.282,0.012 0.226,0.012C0.169,0.012 0.123,-0.015 0.087,-0.068C0.052,-0.122 0.035,-0.217 0.035,-0.354C0.035,-0.489 0.052,-0.583 0.087,-0.637C0.123,-0.691 0.168,-0.718 0.225,-0.718ZM0.225,-0.604C0.203,-0.604 0.185,-0.59 0.172,-0.561C0.159,-0.531 0.152,-0.462 0.152,-0.353C0.152,-0.244 0.159,-0.174 0.172,-0.145C0.185,-0.116 0.203,-0.102 0.225,-0.102C0.248,-0.102 0.266,-0.116 0.279,-0.145C0.292,-0.175 0.298,-0.244 0.298,-0.353C0.298,-0.462 0.292,-0.531 0.279,-0.561C0.266,-0.59 0.248,-0.604 0.225,-0.604Z" style="fill:white;fill-rule:nonzero;"/>
                </g>
            </g>
        </g>
    </g>
</svg>
