<?xml version="1.0" encoding="UTF-8" standalone="no"?><!DOCTYPE svg PUBLIC "-//W3C//DTD SVG 1.1//EN" "http://www.w3.org/Graphics/SVG/1.1/DTD/svg11.dtd"><svg width="100%" height="100%" viewBox="0 0 24 24" version="1.1" xmlns="http://www.w3.org/2000/svg" xmlns:xlink="http://www.w3.org/1999/xlink" xml:space="preserve" xmlns:serif="http://www.serif.com/" style="fill-rule:evenodd;clip-rule:evenodd;stroke-linejoin:round;stroke-miterlimit:2;"><g><circle cx="12" cy="12" r="12" style="fill:#f32735;"/><path d="M6.402,16.113l-1.289,0l0,-6.025c-0.482,0.55 -1.038,0.954 -1.67,1.212l0,-1.45c0.359,-0.148 0.731,-0.412 1.115,-0.792c0.385,-0.38 0.652,-0.818 0.802,-1.313l1.042,-0l0,8.368Z" style="fill:#fff;fill-rule:nonzero;"/><path d="M12.695,14.628l-0,1.485l-4.528,0c0.049,-0.561 0.197,-1.094 0.446,-1.6c0.248,-0.506 0.731,-1.17 1.448,-1.992c0.568,-0.656 0.917,-1.099 1.048,-1.331c0.194,-0.337 0.291,-0.676 0.291,-1.017c0,-0.364 -0.08,-0.639 -0.241,-0.824c-0.16,-0.186 -0.371,-0.279 -0.633,-0.279c-0.571,0 -0.879,0.434 -0.924,1.303l-1.284,-0.159c0.079,-0.85 0.311,-1.474 0.698,-1.872c0.387,-0.398 0.901,-0.597 1.544,-0.597c0.706,-0 1.238,0.233 1.597,0.699c0.359,0.466 0.538,1 0.538,1.603c-0,0.341 -0.046,0.671 -0.137,0.992c-0.092,0.32 -0.233,0.642 -0.424,0.966c-0.19,0.324 -0.508,0.738 -0.952,1.242c-0.415,0.474 -0.677,0.786 -0.787,0.938c-0.111,0.152 -0.199,0.299 -0.267,0.443l2.567,0Z" style="fill:#fff;fill-rule:nonzero;"/><rect x="13.844" y="14.515" width="1.289" height="1.599" style="fill:#fff;fill-rule:nonzero;"/><path d="M15.838,16.113l1.751,-3.09l-1.678,-2.952l1.58,0l0.888,1.559l0.883,-1.559l1.513,0l-1.639,2.888l1.796,3.154l-1.586,0l-1.001,-1.76l-0.999,1.76l-1.508,0Z" style="fill:#fff;fill-rule:nonzero;"/></g></svg>