<?xml version="1.0" encoding="UTF-8" standalone="no"?>
<!DOCTYPE svg PUBLIC "-//W3C//DTD SVG 1.1//EN" "http://www.w3.org/Graphics/SVG/1.1/DTD/svg11.dtd">
<svg width="100%" height="100%" viewBox="0 0 100 100" version="1.1" xmlns="http://www.w3.org/2000/svg" xmlns:xlink="http://www.w3.org/1999/xlink" xml:space="preserve" xmlns:serif="http://www.serif.com/" style="fill-rule:evenodd;clip-rule:evenodd;stroke-linejoin:round;stroke-miterlimit:2;">
    <g transform="matrix(1,0,0,1,-100,-50)">
        <g>
            <g transform="matrix(0.625,0,0,0.625,-4286.88,-398.75)">
                <circle cx="7099" cy="798" r="80" style="fill:rgb(243,39,53);"/>
            </g>
            <g transform="matrix(0.637561,0,0,0.647297,34.1372,52.0309)">
                <g transform="matrix(75,0,0,75,125.13,101.042)">
                    <path d="M0,-0L0.203,-0.373L0.019,-0.716L0.158,-0.716L0.274,-0.502L0.391,-0.716L0.528,-0.716L0.344,-0.373L0.546,-0L0.403,-0L0.273,-0.243L0.143,-0L0,-0Z" style="fill:white;fill-rule:nonzero;"/>
                </g>
                <g transform="matrix(75,0,0,75,166.146,101.042)">
                    <path d="M0.06,-0L0.06,-0.716L0.496,-0.716L0.496,-0.595L0.178,-0.595L0.178,-0.436L0.473,-0.436L0.473,-0.315L0.178,-0.315L0.178,-0.121L0.506,-0.121L0.506,-0L0.06,-0Z" style="fill:white;fill-rule:nonzero;"/>
                </g>
                <g transform="matrix(75,0,0,75,207.161,101.042)">
                    <path d="M0.131,-0.386C0.104,-0.401 0.083,-0.42 0.069,-0.445C0.055,-0.47 0.048,-0.499 0.048,-0.534C0.048,-0.59 0.064,-0.635 0.096,-0.668C0.128,-0.702 0.171,-0.718 0.225,-0.718C0.282,-0.718 0.326,-0.7 0.356,-0.665C0.386,-0.629 0.401,-0.586 0.401,-0.535C0.401,-0.5 0.394,-0.47 0.379,-0.445C0.365,-0.419 0.345,-0.4 0.32,-0.386C0.353,-0.37 0.378,-0.347 0.395,-0.318C0.412,-0.288 0.42,-0.252 0.42,-0.209C0.42,-0.165 0.412,-0.126 0.395,-0.092C0.379,-0.058 0.356,-0.033 0.327,-0.015C0.298,0.003 0.266,0.012 0.229,0.012C0.173,0.012 0.126,-0.007 0.089,-0.047C0.052,-0.086 0.034,-0.139 0.034,-0.205C0.034,-0.248 0.042,-0.285 0.059,-0.316C0.076,-0.347 0.1,-0.37 0.131,-0.386ZM0.155,-0.524C0.155,-0.497 0.161,-0.475 0.175,-0.46C0.188,-0.445 0.204,-0.438 0.225,-0.438C0.245,-0.438 0.262,-0.445 0.275,-0.46C0.289,-0.475 0.295,-0.497 0.295,-0.524C0.295,-0.551 0.289,-0.572 0.276,-0.587C0.262,-0.602 0.246,-0.609 0.226,-0.609C0.205,-0.609 0.188,-0.602 0.175,-0.587C0.161,-0.572 0.155,-0.551 0.155,-0.524ZM0.144,-0.218C0.144,-0.18 0.152,-0.15 0.169,-0.129C0.185,-0.109 0.204,-0.098 0.227,-0.098C0.25,-0.098 0.269,-0.108 0.285,-0.128C0.3,-0.148 0.308,-0.177 0.308,-0.217C0.308,-0.251 0.3,-0.278 0.284,-0.298C0.269,-0.318 0.249,-0.328 0.226,-0.328C0.203,-0.328 0.184,-0.318 0.168,-0.298C0.152,-0.278 0.144,-0.251 0.144,-0.218Z" style="fill:white;fill-rule:nonzero;"/>
                </g>
            </g>
        </g>
    </g>
</svg>
