<?xml version="1.0" encoding="UTF-8" standalone="no"?>
<!DOCTYPE svg PUBLIC "-//W3C//DTD SVG 1.1//EN" "http://www.w3.org/Graphics/SVG/1.1/DTD/svg11.dtd">
<svg width="100%" height="100%" viewBox="0 0 100 100" version="1.1" xmlns="http://www.w3.org/2000/svg" xmlns:xlink="http://www.w3.org/1999/xlink" xml:space="preserve" xmlns:serif="http://www.serif.com/" style="fill-rule:evenodd;clip-rule:evenodd;stroke-linejoin:round;stroke-miterlimit:2;">
    <g transform="matrix(1,0,0,1,-100,-50)">
        <g>
            <g transform="matrix(0.625,0,0,0.625,-4286.88,-398.75)">
                <circle cx="7099" cy="798" r="80" style="fill:rgb(243,39,53);"/>
            </g>
            <g transform="matrix(0.637561,0,0,0.647297,31.4638,51.7346)">
                <g transform="matrix(75,0,0,75,125.13,101.042)">
                    <path d="M0.323,-0L0.21,-0L0.21,-0.517C0.168,-0.47 0.12,-0.435 0.065,-0.413L0.065,-0.538C0.096,-0.55 0.129,-0.573 0.162,-0.606C0.196,-0.638 0.219,-0.676 0.232,-0.718L0.323,-0.718L0.323,-0Z" style="fill:white;fill-rule:nonzero;"/>
                </g>
                <g transform="matrix(75,0,0,75,155.965,101.042)">
                    <path d="M0.323,-0L0.21,-0L0.21,-0.517C0.168,-0.47 0.12,-0.435 0.065,-0.413L0.065,-0.538C0.096,-0.55 0.129,-0.573 0.162,-0.606C0.196,-0.638 0.219,-0.676 0.232,-0.718L0.323,-0.718L0.323,-0Z" style="fill:white;fill-rule:nonzero;"/>
                </g>
                <g transform="matrix(75,0,0,75,190.169,101.042)">
                    <rect x="0.059" y="-0.137" width="0.112" height="0.137" style="fill:white;fill-rule:nonzero;"/>
                </g>
                <g transform="matrix(75,0,0,75,207.271,101.042)">
                    <path d="M0.005,-0L0.157,-0.265L0.011,-0.519L0.149,-0.519L0.226,-0.385L0.303,-0.519L0.435,-0.519L0.292,-0.271L0.449,-0L0.31,-0L0.223,-0.151L0.136,-0L0.005,-0Z" style="fill:white;fill-rule:nonzero;"/>
                </g>
            </g>
        </g>
    </g>
</svg>
