<?xml version="1.0" encoding="UTF-8" standalone="no"?><!DOCTYPE svg PUBLIC "-//W3C//DTD SVG 1.1//EN" "http://www.w3.org/Graphics/SVG/1.1/DTD/svg11.dtd"><svg width="100%" height="100%" viewBox="0 0 24 24" version="1.1" xmlns="http://www.w3.org/2000/svg" xmlns:xlink="http://www.w3.org/1999/xlink" xml:space="preserve" xmlns:serif="http://www.serif.com/" style="fill-rule:evenodd;clip-rule:evenodd;stroke-linejoin:round;stroke-miterlimit:2;"><g><circle cx="12" cy="12" r="12" style="fill:#f32735;"/><path d="M3.345,16.184l2.329,-4.341l-2.116,-3.999l1.589,0l1.336,2.495l1.341,-2.495l1.573,0l-2.115,3.99l2.328,4.35l-1.64,0l-1.496,-2.827l-1.498,2.827l-1.631,0Z" style="fill:#fff;fill-rule:nonzero;"/><path d="M10.305,16.184l-0,-8.34l4.998,0l0,1.411l-3.642,-0l-0,1.849l3.385,-0l-0,1.405l-3.385,0l-0,2.264l3.766,0l-0,1.411l-5.122,0Z" style="fill:#fff;fill-rule:nonzero;"/><path d="M20.655,14.699l-0,1.485l-4.528,0c0.049,-0.56 0.197,-1.094 0.446,-1.6c0.248,-0.506 0.731,-1.17 1.448,-1.992c0.568,-0.656 0.917,-1.099 1.048,-1.33c0.194,-0.338 0.291,-0.677 0.291,-1.018c0,-0.364 -0.08,-0.639 -0.241,-0.824c-0.16,-0.186 -0.371,-0.279 -0.633,-0.279c-0.571,0 -0.88,0.434 -0.924,1.303l-1.284,-0.159c0.079,-0.85 0.311,-1.474 0.698,-1.872c0.387,-0.398 0.901,-0.597 1.544,-0.597c0.706,-0 1.238,0.233 1.597,0.699c0.358,0.466 0.538,1 0.538,1.603c-0,0.341 -0.046,0.672 -0.138,0.992c-0.091,0.32 -0.232,0.642 -0.423,0.966c-0.19,0.324 -0.508,0.738 -0.952,1.242c-0.415,0.474 -0.677,0.787 -0.788,0.938c-0.11,0.152 -0.198,0.299 -0.266,0.443l2.567,0Z" style="fill:#fff;fill-rule:nonzero;"/></g></svg>