<?xml version="1.0" encoding="UTF-8" standalone="no"?>
<!DOCTYPE svg PUBLIC "-//W3C//DTD SVG 1.1//EN" "http://www.w3.org/Graphics/SVG/1.1/DTD/svg11.dtd">
<svg width="100%" height="100%" viewBox="0 0 100 100" version="1.1" xmlns="http://www.w3.org/2000/svg" xmlns:xlink="http://www.w3.org/1999/xlink" xml:space="preserve" xmlns:serif="http://www.serif.com/" style="fill-rule:evenodd;clip-rule:evenodd;stroke-linejoin:round;stroke-miterlimit:2;">
    <g transform="matrix(1,0,0,1,-100,-50)">
        <g>
            <g transform="matrix(0.625,0,0,0.625,-4286.88,-398.75)">
                <circle cx="7099" cy="798" r="80" style="fill:rgb(243,39,53);"/>
            </g>
            <g transform="matrix(0.637561,0,0,0.647297,34.1372,52.0309)">
                <g transform="matrix(75,0,0,75,125.13,101.042)">
                    <path d="M0,-0L0.203,-0.373L0.019,-0.716L0.158,-0.716L0.274,-0.502L0.391,-0.716L0.528,-0.716L0.344,-0.373L0.546,-0L0.403,-0L0.273,-0.243L0.143,-0L0,-0Z" style="fill:white;fill-rule:nonzero;"/>
                </g>
                <g transform="matrix(75,0,0,75,166.146,101.042)">
                    <path d="M0.06,-0L0.06,-0.716L0.496,-0.716L0.496,-0.595L0.178,-0.595L0.178,-0.436L0.473,-0.436L0.473,-0.315L0.178,-0.315L0.178,-0.121L0.506,-0.121L0.506,-0L0.06,-0Z" style="fill:white;fill-rule:nonzero;"/>
                </g>
                <g transform="matrix(75,0,0,75,207.161,101.042)">
                    <path d="M0.031,-0.189L0.14,-0.206C0.143,-0.172 0.152,-0.146 0.168,-0.128C0.183,-0.11 0.202,-0.102 0.223,-0.102C0.246,-0.102 0.266,-0.112 0.282,-0.133C0.298,-0.154 0.306,-0.184 0.306,-0.221C0.306,-0.256 0.298,-0.283 0.283,-0.303C0.267,-0.323 0.249,-0.333 0.227,-0.333C0.212,-0.333 0.195,-0.33 0.175,-0.323L0.188,-0.435C0.217,-0.434 0.24,-0.442 0.257,-0.458C0.273,-0.474 0.282,-0.497 0.282,-0.527C0.282,-0.551 0.276,-0.571 0.264,-0.585C0.252,-0.598 0.236,-0.605 0.217,-0.605C0.198,-0.605 0.182,-0.597 0.168,-0.581C0.154,-0.565 0.146,-0.541 0.143,-0.51L0.039,-0.531C0.05,-0.597 0.071,-0.644 0.102,-0.674C0.133,-0.703 0.173,-0.718 0.22,-0.718C0.274,-0.718 0.316,-0.699 0.348,-0.661C0.379,-0.623 0.395,-0.581 0.395,-0.535C0.395,-0.504 0.388,-0.476 0.374,-0.451C0.36,-0.426 0.338,-0.404 0.31,-0.385C0.343,-0.376 0.37,-0.357 0.39,-0.327C0.411,-0.297 0.421,-0.259 0.421,-0.214C0.421,-0.149 0.402,-0.095 0.363,-0.052C0.324,-0.009 0.278,0.012 0.224,0.012C0.172,0.012 0.129,-0.006 0.093,-0.042C0.057,-0.078 0.037,-0.127 0.031,-0.189Z" style="fill:white;fill-rule:nonzero;"/>
                </g>
            </g>
        </g>
    </g>
</svg>
