<?xml version="1.0" encoding="UTF-8" standalone="no"?>
<!DOCTYPE svg PUBLIC "-//W3C//DTD SVG 1.1//EN" "http://www.w3.org/Graphics/SVG/1.1/DTD/svg11.dtd">
<svg width="100%" height="100%" viewBox="0 0 100 100" version="1.1" xmlns="http://www.w3.org/2000/svg" xmlns:xlink="http://www.w3.org/1999/xlink" xml:space="preserve" xmlns:serif="http://www.serif.com/" style="fill-rule:evenodd;clip-rule:evenodd;stroke-linejoin:round;stroke-miterlimit:2;">
    <g transform="matrix(1,0,0,1,-100,-50)">
        <g>
            <g transform="matrix(0.625,0,0,0.625,-4286.88,-398.75)">
                <circle cx="7099" cy="798" r="80" style="fill:rgb(243,39,53);"/>
            </g>
            <g transform="matrix(0.637561,0,0,0.647297,34.1372,52.0309)">
                <g transform="matrix(75,0,0,75,125.13,101.042)">
                    <path d="M0,-0L0.203,-0.373L0.019,-0.716L0.158,-0.716L0.274,-0.502L0.391,-0.716L0.528,-0.716L0.344,-0.373L0.546,-0L0.403,-0L0.273,-0.243L0.143,-0L0,-0Z" style="fill:white;fill-rule:nonzero;"/>
                </g>
                <g transform="matrix(75,0,0,75,166.146,101.042)">
                    <path d="M0.06,-0L0.06,-0.716L0.496,-0.716L0.496,-0.595L0.178,-0.595L0.178,-0.436L0.473,-0.436L0.473,-0.315L0.178,-0.315L0.178,-0.121L0.506,-0.121L0.506,-0L0.06,-0Z" style="fill:white;fill-rule:nonzero;"/>
                </g>
                <g transform="matrix(75,0,0,75,207.161,101.042)">
                    <path d="M0.037,-0.184L0.149,-0.199C0.152,-0.167 0.161,-0.143 0.178,-0.125C0.194,-0.107 0.212,-0.098 0.231,-0.098C0.255,-0.098 0.274,-0.11 0.291,-0.133C0.308,-0.155 0.316,-0.191 0.316,-0.238C0.316,-0.283 0.308,-0.316 0.291,-0.337C0.275,-0.359 0.254,-0.37 0.228,-0.37C0.196,-0.37 0.167,-0.352 0.141,-0.317L0.05,-0.333L0.107,-0.706L0.405,-0.706L0.405,-0.578L0.193,-0.578L0.175,-0.456C0.2,-0.471 0.226,-0.479 0.252,-0.479C0.299,-0.479 0.338,-0.461 0.37,-0.424C0.411,-0.378 0.431,-0.316 0.431,-0.24C0.431,-0.177 0.414,-0.12 0.379,-0.067C0.344,-0.014 0.295,0.012 0.23,0.012C0.178,0.012 0.135,-0.005 0.1,-0.039C0.065,-0.073 0.044,-0.121 0.037,-0.184Z" style="fill:white;fill-rule:nonzero;"/>
                </g>
            </g>
        </g>
    </g>
</svg>
